HIERARCHY
ROOT Hips
{
	OFFSET -0.001795 -0.223333 0.028219
	CHANNELS 6 Xposition Yposition Zposition Zrotation Yrotation Xrotation 
	JOINT LeftUpLeg
	{
		OFFSET 0.069520 -0.091406 -0.006815
		CHANNELS 3 Zrotation Yrotation Xrotation
		JOINT LeftLeg
		{
			OFFSET 0.034277 -0.375199 -0.004496
			CHANNELS 3 Zrotation Yrotation Xrotation
			JOINT LeftFoot
			{
				OFFSET -0.013596 -0.397961 -0.043693
				CHANNELS 3 Zrotation Yrotation Xrotation
				JOINT LeftToe
				{
					OFFSET 0.026358 -0.055791 0.119288
					CHANNELS 3 Zrotation Yrotation Xrotation
					End Site
					{
						OFFSET 0.000000 0.000000 0.000000
					}
				}
			}
		}
	}
	JOINT RightUpLeg
	{
		OFFSET -0.067670 -0.090522 -0.004320
		CHANNELS 3 Zrotation Yrotation Xrotation
		JOINT RightLeg
		{
			OFFSET -0.038290 -0.382569 -0.008850
			CHANNELS 3 Zrotation Yrotation Xrotation
			JOINT RightFoot
			{
				OFFSET 0.015774 -0.398415 -0.042312
				CHANNELS 3 Zrotation Yrotation Xrotation
				JOINT RightToe
				{
					OFFSET -0.025372 -0.048144 0.123348
					CHANNELS 3 Zrotation Yrotation Xrotation
					End Site
					{
						OFFSET 0.000000 0.000000 0.000000
					}
				}
			}
		}
	}
	JOINT Spine
	{
		OFFSET -0.002533 0.108963 -0.026696
		CHANNELS 3 Zrotation Yrotation Xrotation
		JOINT Spine1
		{
			OFFSET 0.005487 0.135180 0.001092
			CHANNELS 3 Zrotation Yrotation Xrotation
			JOINT Spine2
			{
				OFFSET 0.001457 0.052922 0.025425
				CHANNELS 3 Zrotation Yrotation Xrotation
				JOINT Neck
				{
					OFFSET -0.002778 0.213870 -0.042857
					CHANNELS 3 Zrotation Yrotation Xrotation
					JOINT Head
					{
						OFFSET 0.005152 0.064970 0.051349
						CHANNELS 3 Zrotation Yrotation Xrotation
						End Site
						{
							OFFSET 0.000000 0.000000 0.000000
						}
					}
				}
				JOINT LeftShoulder
				{
					OFFSET 0.078845 0.121749 -0.034090
					CHANNELS 3 Zrotation Yrotation Xrotation
					JOINT LeftArm
					{
						OFFSET 0.090977 0.030469 -0.008868
						CHANNELS 3 Zrotation Yrotation Xrotation
						JOINT LeftForeArm
						{
							OFFSET 0.259612 -0.012772 -0.027456
							CHANNELS 3 Zrotation Yrotation Xrotation
							JOINT LeftHand
							{
								OFFSET 0.249234 0.008986 -0.001171
								CHANNELS 3 Zrotation Yrotation Xrotation
								End Site
								{
									OFFSET 0.000000 0.000000 0.000000
								}
							}
						}
					}
				}
				JOINT RightShoulder
				{
					OFFSET -0.081759 0.118833 -0.038615
					CHANNELS 3 Zrotation Yrotation Xrotation
					JOINT RightArm
					{
						OFFSET -0.096012 0.032551 -0.009143
						CHANNELS 3 Zrotation Yrotation Xrotation
						JOINT RightForeArm
						{
							OFFSET -0.253742 -0.013329 -0.021401
							CHANNELS 3 Zrotation Yrotation Xrotation
							JOINT RightHand
							{
								OFFSET -0.255298 0.007772 -0.005559
								CHANNELS 3 Zrotation Yrotation Xrotation
								End Site
								{
									OFFSET 0.000000 0.000000 0.000000
								}
							}
						}
					}
				}
			}
		}
	}
}
MOTION
Frames: 7
Frame Time: 0.050000
0.000000 0.937093 0.000000 0.447743 -11.199722 9.939871 6.938390 -0.328644 -11.316177 1.734011 -0.237184 0.561567 3.154304 8.519513 12.958868 0.000000 0.000000 0.000000 -6.688064 1.375878 -16.951215 1.066445 0.053511 3.649208 -3.233352 -12.989924 13.754970 0.000000 0.000000 0.000000 7.562794 -1.306274 10.586341 -2.340170 1.162330 0.875063 -2.500938 1.340165 4.271957 8.529441 -5.293503 -9.573814 0.000000 0.000000 0.000000 -14.357525 -24.794549 12.167554 -44.079992 -38.938371 9.213092 15.329507 -58.945093 -5.076067 0.000000 0.000000 0.000000 11.569534 17.781260 6.558565 49.556650 32.244812 8.653386 7.451091 70.288919 6.935534 0.000000 0.000000 0.000000 
0.000503 0.938344 0.001547 0.131573 -11.269316 10.735675 6.595096 -0.377132 -11.511386 2.855084 -0.331390 -0.307888 3.175254 8.602752 13.500536 0.000000 0.000000 0.000000 -6.379442 1.394201 -16.740896 0.975294 -0.003394 1.953049 -3.028134 -12.848479 14.557352 0.000000 0.000000 0.000000 7.304793 -1.186286 9.266030 -1.080791 0.558497 0.461285 -2.552688 0.372029 2.943523 9.031685 -6.056216 -6.705640 0.000000 0.000000 0.000000 -16.767805 -23.551994 12.310141 -41.048823 -42.321465 9.647133 16.339286 -58.382706 -5.376143 0.000000 0.000000 0.000000 10.973300 15.617452 5.314226 51.966680 27.992346 7.379843 26.061941 72.821801 20.406259 0.000000 0.000000 0.000000 
0.000929 0.939720 0.003726 0.125261 -11.309764 9.944274 6.694748 -0.346244 -11.191653 2.519200 -0.352596 0.893338 3.160120 8.573013 13.423439 0.000000 0.000000 0.000000 -5.683009 1.336205 -15.555793 -0.233895 0.096854 1.641872 -2.828690 -12.560532 14.738435 0.000000 0.000000 0.000000 7.961541 -1.072337 7.537491 -1.237636 0.626967 0.326424 -2.640627 -1.646347 3.014355 6.819360 -4.812379 -4.951357 0.000000 0.000000 0.000000 -17.544648 -23.481205 13.024531 -37.836723 -42.957533 8.727108 19.304023 -54.150354 -6.205598 0.000000 0.000000 0.000000 10.939996 13.535635 3.954144 53.048163 24.336015 5.863652 44.395788 70.771570 32.129540 0.000000 0.000000 0.000000 
0.001371 0.940232 0.006423 0.618855 -10.847634 10.294031 6.618275 -0.377610 -11.538166 1.677730 -0.235277 0.720244 2.894602 8.221814 13.554518 0.000000 0.000000 0.000000 -6.230075 1.284934 -15.359615 -0.337067 0.071564 0.911855 -3.055811 -12.931666 14.982713 0.000000 0.000000 0.000000 7.952778 -0.932931 5.986091 -1.416523 0.702367 0.135639 -2.393409 -3.285040 2.953899 6.031263 -4.215821 -5.606396 0.000000 0.000000 0.000000 -14.984603 -22.332053 12.175986 -38.036943 -45.487359 9.869230 22.773646 -55.012315 -7.776129 0.000000 0.000000 0.000000 9.492541 10.810672 2.589083 54.923073 21.662805 4.747538 56.865063 68.209219 38.975250 0.000000 0.000000 0.000000 
0.001889 0.941490 0.009486 0.906950 -11.468460 9.319579 6.001182 -0.392878 -10.589027 1.924969 -0.296592 1.368417 3.133444 8.552212 13.684882 0.000000 0.000000 0.000000 -6.275570 1.190045 -14.037158 -0.849251 0.094377 0.473566 -2.633781 -12.294378 15.000196 0.000000 0.000000 0.000000 7.942562 -0.856967 5.560008 -1.665952 0.800128 -0.494660 -2.163367 -3.939293 3.561358 5.382140 -3.870366 -5.103148 0.000000 0.000000 0.000000 -14.123407 -21.454413 11.723160 -36.194292 -45.369192 9.174073 27.586222 -56.740748 -10.449232 0.000000 0.000000 0.000000 9.197286 9.572357 1.934586 55.043520 19.730673 3.734968 62.337569 66.390609 41.171103 0.000000 0.000000 0.000000 
0.002526 0.942178 0.012348 1.246726 -11.690328 9.529723 5.613544 -0.427009 -10.565215 1.782168 -0.269031 1.157997 3.208750 8.672916 13.934248 0.000000 0.000000 0.000000 -6.770203 1.158922 -13.746745 -0.785304 0.048455 -0.348140 -2.494876 -12.149204 15.253963 0.000000 0.000000 0.000000 7.833225 -0.756647 4.607922 -1.571869 0.745818 -0.880995 -2.102967 -3.440358 3.657499 5.709921 -3.920314 -7.143250 0.000000 0.000000 0.000000 -13.419878 -20.327754 10.887876 -36.163365 -44.800495 8.978894 29.577892 -60.437389 -12.344383 0.000000 0.000000 0.000000 8.701454 9.026697 1.810633 54.778666 18.435993 3.103239 64.234354 65.955445 42.323175 0.000000 0.000000 0.000000 
0.003211 0.941822 0.014973 1.308967 -12.239705 9.082610 5.223257 -0.435354 -10.135364 2.098430 -0.336352 1.725234 3.523319 9.079726 13.672390 0.000000 0.000000 0.000000 -6.791031 1.123733 -13.122579 -0.984944 0.053838 -0.536857 -2.225048 -11.685885 14.965406 0.000000 0.000000 0.000000 7.679773 -0.678260 4.089777 -1.885067 0.871815 -1.364832 -1.908187 -2.720745 4.086045 5.667318 -3.835997 -7.856480 0.000000 0.000000 0.000000 -12.486629 -19.222899 10.013079 -36.371667 -42.406107 8.195842 31.961188 -64.776202 -14.904882 0.000000 0.000000 0.000000 8.796051 8.678145 1.704846 54.372059 19.114983 3.352806 61.868032 65.557649 40.442220 0.000000 0.000000 0.000000 
